<svg width="16" height="16" viewBox="0 0 16 16" fill="none" xmlns="http://www.w3.org/2000/svg">
<path d="M5.5 10.5C5.5 10.0398 5.8731 9.66667 6.33333 9.66667H9.66667C10.1269 9.66667 10.5 10.0398 10.5 10.5V13.8333H13.8333V8.34518L8 2.51184L2.16667 8.34518V13.8333H5.5V10.5ZM7.16667 11.3333V14.6667C7.16667 15.1269 6.79357 15.5 6.33333 15.5H1.33333C0.873096 15.5 0.5 15.1269 0.5 14.6667V8C0.5 7.77899 0.587797 7.56702 0.744078 7.41074L7.41074 0.744078C7.73618 0.418641 8.26382 0.418641 8.58926 0.744078L15.2559 7.41074C15.4122 7.56702 15.5 7.77899 15.5 8V14.6667C15.5 15.1269 15.1269 15.5 14.6667 15.5H9.66667C9.20643 15.5 8.83333 15.1269 8.83333 14.6667V11.3333H7.16667Z" fill="#AAABAD"/>
</svg>
